<?xml version="1.0" encoding="utf-8"?>
<!-- Generator: Adobe Illustrator 19.2.1, SVG Export Plug-In . SVG Version: 6.00 Build 0)  -->
<svg version="1.1" id="Слой_1" xmlns="http://www.w3.org/2000/svg" xmlns:xlink="http://www.w3.org/1999/xlink" x="0px" y="0px"
	 viewBox="0 0 110 110" style="enable-background:new 0 0 110 110;" xml:space="preserve">
<style type="text/css">
	.st0{fill:#FFFFFF;}
</style>
<g>
	<g>
		<g>
			<path class="st0" d="M55,73.6L55,73.6c-0.3,0-0.6-0.3-0.6-0.6V37c0-0.3,0.3-0.6,0.6-0.6l0,0c0.3,0,0.6,0.3,0.6,0.6v36
				C55.6,73.3,55.3,73.6,55,73.6z"/>
		</g>
	</g>
	<g>
		<g>
			<path class="st0" d="M73,55.6H37c-0.3,0-0.6-0.3-0.6-0.6l0,0c0-0.3,0.3-0.6,0.6-0.6h36c0.3,0,0.6,0.3,0.6,0.6l0,0
				C73.6,55.3,73.3,55.6,73,55.6z"/>
		</g>
	</g>
</g>
</svg>
