<?xml version="1.0" encoding="utf-8"?>
<!-- Generator: Adobe Illustrator 19.2.1, SVG Export Plug-In . SVG Version: 6.00 Build 0)  -->
<svg version="1.1" id="Слой_1" xmlns="http://www.w3.org/2000/svg" xmlns:xlink="http://www.w3.org/1999/xlink" x="0px" y="0px"
	 viewBox="0 0 110 110" style="enable-background:new 0 0 110 110;" xml:space="preserve">
<style type="text/css">
	.st0{fill:#FFFFFF;}
</style>
<g>
	<path class="st0" d="M69.5,66c-0.2-1.6-3.8-4.7-12.7-10.5c-0.2-0.1-0.4-0.3-0.6-0.4l2.7-1.9c1.4-0.9,2.9-2,4.5-3.1
		c5.3-3.9,6.1-5.3,6.1-6c0.3-3.4,1.2-10.8,1.6-14.9c0.1-0.8-0.2-1.6-0.7-2.3c-0.5-0.6-1.3-1-2.2-1H41.7c-0.8,0-1.6,0.4-2.2,1
		c-0.5,0.6-0.8,1.4-0.7,2.3c0.5,4.1,1.3,11.5,1.6,14.9c0.2,1.9,5.1,5.5,12.5,10.3c0.3,0.2,0.6,0.4,0.9,0.6c-1.4,0.9-4.4,2.9-7.3,4.9
		c-5.3,3.9-6.1,5.3-6.2,6c-0.3,3.4-1.2,10.8-1.6,14.9c-0.1,0.8,0.2,1.6,0.7,2.3c0.5,0.6,1.3,1,2.2,1h26.5c0.8,0,1.6-0.4,2.2-1
		c0.5-0.6,0.8-1.4,0.7-2.3C70.7,76.7,69.9,69.4,69.5,66z M53.7,53.4c-1.8-1.2-4.8-3.2-7.4-5.1c-4.3-3.2-4.6-4.2-4.6-4.3
		c-0.3-3.4-1.1-10.8-1.6-14.9c-0.1-0.5,0.1-0.9,0.4-1.3c0.3-0.4,0.8-0.5,1.2-0.5h26.5c0.5,0,0.9,0.2,1.2,0.5
		c0.3,0.4,0.5,0.8,0.4,1.3c-0.5,4.1-1.3,11.5-1.6,14.9c0,0.3-0.8,2.3-13.1,10.2c0,0-0.1,0-0.1,0.1C54.7,54.1,54.3,53.8,53.7,53.4z
		 M69.5,82.3c-0.3,0.4-0.7,0.5-1.2,0.5H41.7c-0.5,0-0.9-0.2-1.2-0.5c-0.3-0.4-0.5-0.8-0.4-1.3c0.5-4.1,1.3-11.5,1.6-14.9
		c0-0.3,0.8-2.3,13.1-10.2c0,0,0.1,0,0.1-0.1c0,0,0,0,0.1,0c0.3,0.2,0.6,0.4,1.1,0.7c1.8,1.2,4.8,3.1,7.4,5.1
		c4.4,3.3,4.7,4.3,4.7,4.4c0.3,3.4,1.2,10.8,1.6,14.9C69.9,81.5,69.8,81.9,69.5,82.3z"/>
</g>
</svg>
