<?xml version="1.0" encoding="utf-8"?>
<!-- Generator: Adobe Illustrator 19.2.1, SVG Export Plug-In . SVG Version: 6.00 Build 0)  -->
<svg version="1.1" id="Слой_1" xmlns="http://www.w3.org/2000/svg" xmlns:xlink="http://www.w3.org/1999/xlink" x="0px" y="0px"
	 viewBox="0 0 960 960" style="enable-background:new 0 0 960 960;" xml:space="preserve">
<style type="text/css">
	.st0{fill:none;stroke:#FFFFFF;stroke-width:8;stroke-miterlimit:10;}
	.st1{fill:#FFFFFF;}
</style>
<g>
	
	<g>
		<path class="st0" d="M409,505.7c-6.7-11.8-10.5-25.5-10.5-40.1c0-45,36.5-81.5,81.5-81.5s81.5,36.5,81.5,81.5
			c0,14.6-3.8,28.2-10.5,40.1"/>
		<g>
			<path class="st0" d="M299.2,815.7c-8.8-22.1-13.6-46.3-13.6-71.5c0-107.3,87-194.3,194.3-194.3s194.3,87,194.3,194.3
				c0,25.3-4.8,49.4-13.6,71.5"/>
		</g>
	</g>
	<g>
		<path class="st1" d="M444.8,689c0.5-9.4,3.9-17,10.2-23c6.3-6,14.8-9,25.4-9c10.1,0,18.5,2.9,25,8.7c6.5,5.8,9.8,13,9.8,21.8
			c0,6.1-1.5,11.5-4.5,16.2c-3,4.7-7.5,8.9-13.5,12.8c-5.6,3.6-9.3,6.8-11.3,9.8c-2,3-3,6.8-3,11.6v6.4h-11.3v-8
			c-0.1-5.6,1.2-10.3,3.8-14.3s6.9-7.9,12.9-11.8c5.4-3.6,9.2-7,11.4-10.4c2.2-3.3,3.4-7.3,3.4-11.8c0-6.1-2.2-11-6.5-15
			c-4.4-3.9-9.9-5.9-16.7-5.9c-6.8,0-12.4,2-16.7,5.9c-4.4,4-6.8,9.3-7.4,16H444.8z M483.2,779.3c-1.6,1.6-3.5,2.3-5.7,2.3
			c-2.3,0-4.2-0.8-5.7-2.3c-1.6-1.6-2.3-3.5-2.3-5.7c0-2.3,0.8-4.2,2.3-5.7c1.6-1.6,3.5-2.3,5.7-2.3c2.3,0,4.3,0.8,5.8,2.3
			c1.5,1.5,2.3,3.5,2.3,5.8C485.6,775.8,484.8,777.7,483.2,779.3z"/>
	</g>
</g>
</svg>
